<?xml version="1.0" standalone="no"?>
<!DOCTYPE svg PUBLIC "-//W3C//DTD SVG 20010904//EN"
 "http://www.w3.org/TR/2001/REC-SVG-20010904/DTD/svg10.dtd">
<svg version="1.0" xmlns="http://www.w3.org/2000/svg"
 width="512.000000pt" height="512.000000pt" viewBox="0 0 512.000000 512.000000"
 preserveAspectRatio="xMidYMid meet">

<g transform="translate(0.000000,512.000000) scale(0.100000,-0.100000)"
fill="#000000" stroke="none">
<path d="M412 4783 c-18 -9 -45 -32 -60 -51 -35 -46 -38 -135 -6 -178 46 -62
65 -69 200 -72 68 -2 124 -4 124 -5 0 -1 95 -475 210 -1052 116 -577 210
-1053 210 -1056 0 -3 -27 -23 -59 -43 -178 -109 -267 -324 -216 -519 46 -178
193 -320 367 -356 37 -8 499 -10 1545 -9 l1492 3 28 21 c54 40 75 83 71 142
-5 56 -25 91 -72 126 -27 21 -32 21 -1526 26 -1494 5 -1499 5 -1526 26 -53 39
-69 71 -69 134 0 63 16 95 69 134 27 21 31 21 1606 26 l1579 5 28 21 c65 48
59 19 212 992 143 910 144 912 127 956 -19 51 -38 69 -89 91 -32 13 -237 15
-1816 15 l-1781 0 -5 23 c-3 12 -28 134 -55 270 -54 273 -64 296 -134 328 -35
16 -67 19 -231 19 -156 0 -196 -3 -223 -17z m3995 -970 c-2 -16 -54 -340 -113
-720 l-109 -693 -1387 0 -1387 0 -10 53 c-6 28 -71 352 -145 720 l-133 667
1645 0 1645 0 -6 -27z"/>
<path d="M1692 3503 c-18 -9 -45 -32 -60 -51 -22 -29 -27 -46 -27 -93 0 -62
17 -94 69 -133 27 -21 32 -21 1126 -21 l1099 0 28 21 c54 40 75 83 71 142 -5
56 -25 91 -72 126 -27 21 -34 21 -1114 23 -991 2 -1090 1 -1120 -14z"/>
<path d="M2012 3023 c-18 -9 -45 -32 -60 -51 -22 -29 -27 -46 -27 -93 0 -62
17 -94 69 -133 27 -21 35 -21 806 -21 774 0 779 0 807 21 54 40 75 83 71 142
-5 56 -25 91 -72 126 -27 21 -37 21 -794 23 -695 3 -770 1 -800 -14z"/>
<path d="M1319 1262 c-183 -48 -325 -208 -352 -397 -35 -239 120 -468 358
-530 322 -84 636 199 588 530 -33 233 -240 414 -473 414 -30 0 -85 -8 -121
-17z m184 -316 c103 -43 128 -177 48 -257 -65 -65 -157 -65 -222 0 -124 123
13 325 174 257z"/>
<path d="M3719 1262 c-183 -48 -325 -208 -352 -397 -35 -239 120 -468 358
-530 322 -84 636 199 588 530 -33 233 -240 414 -473 414 -30 0 -85 -8 -121
-17z m184 -316 c103 -43 128 -177 48 -257 -65 -65 -157 -65 -222 0 -124 123
13 325 174 257z"/>
</g>
</svg>
