<svg width="64" height="64" viewBox="0 0 64 64" fill="none" xmlns="http://www.w3.org/2000/svg">
<mask id="path-1-outside-1_60_283" maskUnits="userSpaceOnUse" x="23" y="10" width="40" height="44" fill="black">
<rect fill="white" x="23" y="10" width="40" height="44"/>
<path d="M43.5469 11.7656C45.5156 11.8385 47.5026 12.2031 49.5078 12.8594C51.5495 13.4792 53.4271 14.5 55.1406 15.9219C56.8542 17.3073 58.3125 19.112 59.5156 21.3359C60.7188 23.5234 61.4661 26.2031 61.7578 29.375C62.013 31.9635 61.6849 34.5339 60.7734 37.0859C59.8984 39.6016 58.6771 41.9167 57.1094 44.0312C55.5417 46.1458 53.737 47.9505 51.6953 49.4453C49.6536 50.9036 47.612 51.8698 45.5703 52.3438C44.3307 52.6354 42.9635 52.6719 41.4688 52.4531C40.0104 52.1979 38.5156 51.7422 36.9844 51.0859C35.4896 50.3932 34.013 49.5182 32.5547 48.4609C31.1328 47.4036 29.8385 46.2005 28.6719 44.8516C27.5052 43.4661 26.5208 41.9714 25.7188 40.3672C24.9531 38.763 24.4792 37.0859 24.2969 35.3359C24.1146 33.8776 24.0964 32.2734 24.2422 30.5234C24.4245 28.737 24.7708 26.9688 25.2812 25.2188C25.8281 23.4323 26.5755 21.7188 27.5234 20.0781C28.5078 18.401 29.7474 16.9427 31.2422 15.7031C32.737 14.4271 34.487 13.4427 36.4922 12.75C38.5339 12.0208 40.8854 11.6927 43.5469 11.7656ZM33.7578 33.9141C33.2474 37.8151 33.612 40.9505 34.8516 43.3203C36.1276 45.6901 38.0417 47.1302 40.5938 47.6406C41.8333 47.8958 43.0182 47.6406 44.1484 46.875C45.3151 46.0729 46.3724 44.9245 47.3203 43.4297C48.2682 41.9349 49.0885 40.1849 49.7812 38.1797C50.474 36.1745 50.9844 34.0781 51.3125 31.8906C51.6406 29.7031 51.6589 27.7344 51.3672 25.9844C51.112 24.1979 50.6562 22.6849 50 21.4453C49.3438 20.1693 48.5417 19.1849 47.5938 18.4922C46.6823 17.7995 45.7344 17.4167 44.75 17.3438C43.0365 17.2344 41.5417 17.6901 40.2656 18.7109C38.9896 19.6953 37.9141 20.9896 37.0391 22.5938C36.1641 24.1979 35.4531 26.0026 34.9062 28.0078C34.3958 30.013 34.013 31.9818 33.7578 33.9141Z"/>
</mask>
<path d="M43.5469 11.7656C45.5156 11.8385 47.5026 12.2031 49.5078 12.8594C51.5495 13.4792 53.4271 14.5 55.1406 15.9219C56.8542 17.3073 58.3125 19.112 59.5156 21.3359C60.7188 23.5234 61.4661 26.2031 61.7578 29.375C62.013 31.9635 61.6849 34.5339 60.7734 37.0859C59.8984 39.6016 58.6771 41.9167 57.1094 44.0312C55.5417 46.1458 53.737 47.9505 51.6953 49.4453C49.6536 50.9036 47.612 51.8698 45.5703 52.3438C44.3307 52.6354 42.9635 52.6719 41.4688 52.4531C40.0104 52.1979 38.5156 51.7422 36.9844 51.0859C35.4896 50.3932 34.013 49.5182 32.5547 48.4609C31.1328 47.4036 29.8385 46.2005 28.6719 44.8516C27.5052 43.4661 26.5208 41.9714 25.7188 40.3672C24.9531 38.763 24.4792 37.0859 24.2969 35.3359C24.1146 33.8776 24.0964 32.2734 24.2422 30.5234C24.4245 28.737 24.7708 26.9688 25.2812 25.2188C25.8281 23.4323 26.5755 21.7188 27.5234 20.0781C28.5078 18.401 29.7474 16.9427 31.2422 15.7031C32.737 14.4271 34.487 13.4427 36.4922 12.75C38.5339 12.0208 40.8854 11.6927 43.5469 11.7656ZM33.7578 33.9141C33.2474 37.8151 33.612 40.9505 34.8516 43.3203C36.1276 45.6901 38.0417 47.1302 40.5938 47.6406C41.8333 47.8958 43.0182 47.6406 44.1484 46.875C45.3151 46.0729 46.3724 44.9245 47.3203 43.4297C48.2682 41.9349 49.0885 40.1849 49.7812 38.1797C50.474 36.1745 50.9844 34.0781 51.3125 31.8906C51.6406 29.7031 51.6589 27.7344 51.3672 25.9844C51.112 24.1979 50.6562 22.6849 50 21.4453C49.3438 20.1693 48.5417 19.1849 47.5938 18.4922C46.6823 17.7995 45.7344 17.4167 44.75 17.3438C43.0365 17.2344 41.5417 17.6901 40.2656 18.7109C38.9896 19.6953 37.9141 20.9896 37.0391 22.5938C36.1641 24.1979 35.4531 26.0026 34.9062 28.0078C34.3958 30.013 34.013 31.9818 33.7578 33.9141Z" fill="white"/>
<path d="M43.5469 11.7656L43.5839 10.7663L43.5743 10.766L43.5469 11.7656ZM49.5078 12.8594L49.1968 13.8098L49.207 13.8131L49.2173 13.8163L49.5078 12.8594ZM55.1406 15.9219L54.502 16.6915L54.5119 16.6995L55.1406 15.9219ZM59.5156 21.3359L58.6361 21.8118L58.6394 21.8179L59.5156 21.3359ZM61.7578 29.375L60.762 29.4666L60.7626 29.4731L61.7578 29.375ZM60.7734 37.0859L59.8317 36.7496L59.8289 36.7574L60.7734 37.0859ZM57.1094 44.0312L56.3061 43.4357L57.1094 44.0312ZM51.6953 49.4453L52.2766 50.2591L52.2861 50.2522L51.6953 49.4453ZM45.5703 52.3438L45.3442 51.3696L45.3413 51.3703L45.5703 52.3438ZM41.4688 52.4531L41.2964 53.4382L41.3101 53.4406L41.324 53.4426L41.4688 52.4531ZM36.9844 51.0859L36.5639 51.9932L36.5771 51.9994L36.5905 52.0051L36.9844 51.0859ZM32.5547 48.4609L31.9579 49.2635L31.9677 49.2705L32.5547 48.4609ZM28.6719 44.8516L27.9069 45.4958L27.9155 45.5057L28.6719 44.8516ZM25.7188 40.3672L24.8163 40.7979L24.8202 40.8062L24.8243 40.8144L25.7188 40.3672ZM24.2969 35.3359L25.2915 35.2323L25.2904 35.2221L25.2892 35.2119L24.2969 35.3359ZM24.2422 30.5234L23.2474 30.4219L23.2464 30.4311L23.2456 30.4404L24.2422 30.5234ZM25.2812 25.2188L24.325 24.926L24.3212 24.9387L25.2812 25.2188ZM27.5234 20.0781L26.661 19.5719L26.6576 19.5778L27.5234 20.0781ZM31.2422 15.7031L31.8805 16.4729L31.886 16.4683L31.8914 16.4637L31.2422 15.7031ZM36.4922 12.75L36.8187 13.6952L36.8285 13.6917L36.4922 12.75ZM33.7578 33.9141L32.7664 33.7831L32.7663 33.7843L33.7578 33.9141ZM34.8516 43.3203L33.9654 43.7838L33.9711 43.7944L34.8516 43.3203ZM40.5938 47.6406L40.7954 46.6612L40.7899 46.66L40.5938 47.6406ZM44.1484 46.875L44.7093 47.7029L44.715 47.699L44.1484 46.875ZM51.3672 25.9844L50.3772 26.1258L50.3789 26.1373L50.3808 26.1488L51.3672 25.9844ZM50 21.4453L49.1106 21.9027L49.1162 21.9132L50 21.4453ZM47.5938 18.4922L46.9887 19.2883L46.9961 19.294L47.0037 19.2996L47.5938 18.4922ZM44.75 17.3438L44.8239 16.3464L44.8137 16.3458L44.75 17.3438ZM40.2656 18.7109L40.8764 19.5027L40.8834 19.4973L40.8903 19.4918L40.2656 18.7109ZM37.0391 22.5938L37.917 23.0726L37.0391 22.5938ZM34.9062 28.0078L33.9415 27.7447L33.9392 27.7529L33.9372 27.7611L34.9062 28.0078ZM43.5099 12.7649C45.3791 12.8342 47.2739 13.1805 49.1968 13.8098L49.8189 11.909C47.7313 11.2258 45.6522 10.8429 43.5839 10.7663L43.5099 12.7649ZM49.2173 13.8163C51.1261 14.3957 52.8864 15.3508 54.5021 16.6914L55.7792 15.1523C53.9678 13.6492 51.9728 12.5626 49.7983 11.9025L49.2173 13.8163ZM54.5119 16.6995C56.1087 17.9905 57.4866 19.687 58.6361 21.8118L60.3952 20.8601C59.1384 18.537 57.5996 16.6241 55.7693 15.1442L54.5119 16.6995ZM58.6394 21.8179C59.7607 23.8565 60.4796 26.3953 60.762 29.4666L62.7536 29.2834C62.4527 26.0109 61.6768 23.1904 60.3918 20.854L58.6394 21.8179ZM60.7626 29.4731C61.0027 31.9085 60.6956 34.3306 59.8317 36.7496L61.7152 37.4223C62.6742 34.7371 63.0233 32.0186 62.753 29.2769L60.7626 29.4731ZM59.8289 36.7574C58.9868 39.1785 57.8127 41.4034 56.3061 43.4357L57.9127 44.6268C59.5414 42.4299 60.8101 40.0246 61.7179 37.4145L59.8289 36.7574ZM56.3061 43.4357C54.7958 45.4728 53.0619 47.2054 51.1046 48.6384L52.2861 50.2522C54.412 48.6957 56.2876 46.8188 57.9127 44.6268L56.3061 43.4357ZM51.1141 48.6316C49.1585 50.0284 47.2356 50.9306 45.3442 51.3697L45.7964 53.3178C47.9884 52.809 50.1488 51.7789 52.2766 50.259L51.1141 48.6316ZM45.3413 51.3703C44.2447 51.6283 43.0066 51.6675 41.6135 51.4637L41.324 53.4426C42.9205 53.6762 44.4167 53.6425 45.7994 53.3172L45.3413 51.3703ZM41.6411 51.4681C40.2677 51.2278 38.8472 50.7963 37.3783 50.1668L36.5905 52.0051C38.184 52.6881 39.7531 53.1681 41.2964 53.4382L41.6411 51.4681ZM37.4048 50.1786C35.9737 49.5154 34.5526 48.6742 33.1417 47.6513L31.9677 49.2705C33.4735 50.3622 35.0055 51.271 36.5639 51.9932L37.4048 50.1786ZM33.1514 47.6585C31.7884 46.6449 30.5476 45.4916 29.4282 44.1974L27.9155 45.5057C29.1295 46.9094 30.4773 48.1623 31.958 49.2634L33.1514 47.6585ZM29.4368 44.2074C28.3204 42.8817 27.3797 41.4529 26.6132 39.92L24.8243 40.8144C25.662 42.4898 26.69 44.0506 27.907 45.4957L29.4368 44.2074ZM26.6212 39.9365C25.9042 38.4342 25.4618 36.8677 25.2915 35.2323L23.3023 35.4395C23.4965 37.3042 24.002 39.0918 24.8163 40.7979L26.6212 39.9365ZM25.2892 35.2119C25.1169 33.834 25.0976 32.3004 25.2387 30.6065L23.2456 30.4404C23.0951 32.2465 23.1123 33.9212 23.3046 35.46L25.2892 35.2119ZM25.237 30.625C25.4131 28.8998 25.7476 27.1913 26.2413 25.4988L24.3212 24.9387C23.7941 26.7462 23.4359 28.5741 23.2474 30.4219L25.237 30.625ZM26.2374 25.5115C26.7619 23.7984 27.4787 22.1544 28.3893 20.5784L26.6576 19.5778C25.6723 21.2831 24.8944 23.0662 24.3251 24.926L26.2374 25.5115ZM28.3859 20.5843C29.3115 19.0073 30.4753 17.6382 31.8805 16.4729L30.6039 14.9334C29.0195 16.2472 27.7041 17.7948 26.661 19.5719L28.3859 20.5843ZM31.8914 16.4637C33.2838 15.2751 34.9222 14.3503 36.8187 13.6952L36.1657 11.8048C34.0517 12.5351 32.1901 13.5791 30.5929 14.9426L31.8914 16.4637ZM36.8285 13.6917C38.7303 13.0125 40.9545 12.695 43.5195 12.7652L43.5743 10.766C40.8164 10.6904 38.3374 11.0291 36.1559 11.8083L36.8285 13.6917ZM32.7663 33.7843C32.2411 37.798 32.5953 41.1644 33.9655 43.7838L35.7377 42.8568C34.6286 40.7366 34.2537 37.8323 34.7494 34.0438L32.7663 33.7843ZM33.9711 43.7944C35.3828 46.4162 37.5421 48.0501 40.3976 48.6212L40.7899 46.66C38.5413 46.2103 36.8724 44.964 35.732 42.8462L33.9711 43.7944ZM40.3921 48.6201C41.9181 48.9343 43.3752 48.6066 44.7093 47.7029L43.5876 46.0471C42.6612 46.6746 41.7486 46.8574 40.7954 46.6612L40.3921 48.6201ZM44.715 47.699C46.0169 46.804 47.1621 45.5464 48.1648 43.9652L46.4758 42.8941C45.5827 44.3026 44.6133 45.3419 43.5819 46.051L44.715 47.699ZM48.1648 43.9652C49.1615 42.3935 50.0132 40.5708 50.7264 38.5062L48.8361 37.8532C48.1639 39.799 47.3749 41.4763 46.4758 42.8941L48.1648 43.9652ZM50.7264 38.5062C51.44 36.4407 51.9646 34.2845 52.3014 32.039L50.3236 31.7423C50.0041 33.8718 49.5079 35.9083 48.8361 37.8532L50.7264 38.5062ZM52.3014 32.039C52.6414 29.7722 52.6661 27.6953 52.3536 25.82L50.3808 26.1488C50.6516 27.7734 50.6398 29.634 50.3236 31.7423L52.3014 32.039ZM52.3571 25.843C52.0901 23.9735 51.6069 22.3434 50.8838 20.9774L49.1162 21.9132C49.7056 23.0264 50.1339 24.4224 50.3772 26.1258L52.3571 25.843ZM50.8893 20.988C50.1774 19.6038 49.2822 18.4875 48.1838 17.6848L47.0037 19.2996C47.8012 19.8823 48.5101 20.7347 49.1107 21.9027L50.8893 20.988ZM48.1988 17.696C47.1586 16.9055 46.0303 16.4358 44.8239 16.3465L44.6761 18.341C45.4385 18.3975 46.206 18.6935 46.9887 19.2883L48.1988 17.696ZM44.8137 16.3458C42.8655 16.2214 41.122 16.7452 39.6409 17.9301L40.8903 19.4918C41.9614 18.635 43.2074 18.2473 44.6863 18.3417L44.8137 16.3458ZM39.6548 17.9192C38.2552 18.9988 37.0937 20.4053 36.1612 22.1149L37.917 23.0726C38.7344 21.5739 39.7239 20.3918 40.8764 19.5027L39.6548 17.9192ZM36.1612 22.1149C35.2442 23.7959 34.5061 25.6745 33.9415 27.7447L35.871 28.2709C36.4002 26.3307 37.0839 24.5999 37.917 23.0726L36.1612 22.1149ZM33.9372 27.7611C33.4176 29.8021 33.0271 31.8095 32.7664 33.7831L34.7492 34.045C34.999 32.154 35.374 30.2239 35.8753 28.2545L33.9372 27.7611Z" fill="#005153" mask="url(#path-1-outside-1_60_283)"/>
<mask id="path-3-outside-2_60_283" maskUnits="userSpaceOnUse" x="1" y="10" width="44" height="45" fill="black">
<rect fill="white" x="1" y="10" width="44" height="45"/>
<path d="M25.1328 11.6953C27.6328 11.6563 29.6836 12.1055 31.2852 13.043C32.9258 13.9805 34.2539 15.0938 35.2695 16.3828C36.2852 17.6719 37.0664 18.9805 37.6133 20.3086C38.1602 21.5977 38.5898 22.6133 38.9023 23.3555C38.9805 23.5508 39.1367 23.8047 39.3711 24.1172C39.5664 24.3906 39.8398 24.7227 40.1914 25.1133C40.582 25.4648 41.0703 25.875 41.6562 26.3438C40.4453 26.3828 39.3711 26.4219 38.4336 26.4609C37.4961 26.4609 36.6953 26.4805 36.0312 26.5195C35.2891 26.5586 34.625 26.5977 34.0391 26.6367C33.4531 26.6758 32.7305 26.7344 31.8711 26.8125C31.0898 26.8906 30.1328 26.9688 29 27.0469C27.8672 27.125 26.4805 27.2422 24.8398 27.3984C25.8164 26.2266 26.5781 25.1914 27.125 24.293C27.7109 23.3555 28.1406 22.5352 28.4141 21.832C28.7266 21.0898 28.9023 20.4453 28.9414 19.8984C29.0195 19.3516 29 18.8828 28.8828 18.4922C28.6484 17.5937 28.043 16.9492 27.0664 16.5586C24.2539 15.7773 21.793 16.4023 19.6836 18.4336C17.6133 20.4258 16.1289 23.707 15.2305 28.2773C14.8008 30.543 14.3906 32.9062 14 35.3672C13.6484 37.7891 13.5117 40.0156 13.5898 42.0469C13.668 44.0391 14.0586 45.6602 14.7617 46.9102C15.4648 48.1602 16.6758 48.7461 18.3945 48.668C20.0742 48.5898 21.5 48.3164 22.6719 47.8477C23.8438 47.3398 24.7812 46.7539 25.4844 46.0898C26.1875 45.3867 26.6758 44.6445 26.9492 43.8633C27.2617 43.043 27.3789 42.2812 27.3008 41.5781C27.1445 41.0312 26.7344 40.4453 26.0703 39.8203C25.4844 39.2734 24.6055 38.668 23.4336 38.0039C22.2617 37.3008 20.582 36.5781 18.3945 35.8359C20.4648 35.7188 22.1641 35.6406 23.4922 35.6016C24.8594 35.5234 25.9336 35.4453 26.7148 35.3672C27.6523 35.2891 28.375 35.2305 28.8828 35.1914C29.3516 35.1523 30.0352 35.1133 30.9336 35.0742C31.7148 35.0352 32.7109 35.0156 33.9219 35.0156C35.1719 35.0156 36.7344 34.9961 38.6094 34.957C37.9062 35.6602 37.3594 36.3047 36.9688 36.8906C36.7734 37.2031 36.5977 37.4766 36.4414 37.7109C36.2852 38.1016 36.2266 38.9023 36.2656 40.1133C36.2656 41.1289 36.3438 42.6328 36.5 44.625C36.6562 46.5781 36.9492 49.2539 37.3789 52.6523L29.5859 53.707L29.9375 45.7969C29.0391 47.9453 27.9062 49.5469 26.5391 50.6016C25.2109 51.6562 23.9414 52.3984 22.7305 52.8281C21.2852 53.3359 19.7812 53.5703 18.2188 53.5312C16.1875 53.3359 14.1562 52.8672 12.125 52.125C10.0938 51.3828 8.29688 50.25 6.73438 48.7266C5.17188 47.1641 3.96094 45.1523 3.10156 42.6914C2.28125 40.2305 2.02734 37.1836 2.33984 33.5508C2.69141 29.918 3.55078 26.7539 4.91797 24.0586C6.32422 21.3242 8.0625 19.0586 10.1328 17.2617C12.2031 15.4648 14.5273 14.1172 17.1055 13.2188C19.7227 12.2812 22.3984 11.7734 25.1328 11.6953Z"/>
</mask>
<path d="M25.1328 11.6953C27.6328 11.6563 29.6836 12.1055 31.2852 13.043C32.9258 13.9805 34.2539 15.0938 35.2695 16.3828C36.2852 17.6719 37.0664 18.9805 37.6133 20.3086C38.1602 21.5977 38.5898 22.6133 38.9023 23.3555C38.9805 23.5508 39.1367 23.8047 39.3711 24.1172C39.5664 24.3906 39.8398 24.7227 40.1914 25.1133C40.582 25.4648 41.0703 25.875 41.6562 26.3438C40.4453 26.3828 39.3711 26.4219 38.4336 26.4609C37.4961 26.4609 36.6953 26.4805 36.0312 26.5195C35.2891 26.5586 34.625 26.5977 34.0391 26.6367C33.4531 26.6758 32.7305 26.7344 31.8711 26.8125C31.0898 26.8906 30.1328 26.9688 29 27.0469C27.8672 27.125 26.4805 27.2422 24.8398 27.3984C25.8164 26.2266 26.5781 25.1914 27.125 24.293C27.7109 23.3555 28.1406 22.5352 28.4141 21.832C28.7266 21.0898 28.9023 20.4453 28.9414 19.8984C29.0195 19.3516 29 18.8828 28.8828 18.4922C28.6484 17.5937 28.043 16.9492 27.0664 16.5586C24.2539 15.7773 21.793 16.4023 19.6836 18.4336C17.6133 20.4258 16.1289 23.707 15.2305 28.2773C14.8008 30.543 14.3906 32.9062 14 35.3672C13.6484 37.7891 13.5117 40.0156 13.5898 42.0469C13.668 44.0391 14.0586 45.6602 14.7617 46.9102C15.4648 48.1602 16.6758 48.7461 18.3945 48.668C20.0742 48.5898 21.5 48.3164 22.6719 47.8477C23.8438 47.3398 24.7812 46.7539 25.4844 46.0898C26.1875 45.3867 26.6758 44.6445 26.9492 43.8633C27.2617 43.043 27.3789 42.2812 27.3008 41.5781C27.1445 41.0312 26.7344 40.4453 26.0703 39.8203C25.4844 39.2734 24.6055 38.668 23.4336 38.0039C22.2617 37.3008 20.582 36.5781 18.3945 35.8359C20.4648 35.7188 22.1641 35.6406 23.4922 35.6016C24.8594 35.5234 25.9336 35.4453 26.7148 35.3672C27.6523 35.2891 28.375 35.2305 28.8828 35.1914C29.3516 35.1523 30.0352 35.1133 30.9336 35.0742C31.7148 35.0352 32.7109 35.0156 33.9219 35.0156C35.1719 35.0156 36.7344 34.9961 38.6094 34.957C37.9062 35.6602 37.3594 36.3047 36.9688 36.8906C36.7734 37.2031 36.5977 37.4766 36.4414 37.7109C36.2852 38.1016 36.2266 38.9023 36.2656 40.1133C36.2656 41.1289 36.3438 42.6328 36.5 44.625C36.6562 46.5781 36.9492 49.2539 37.3789 52.6523L29.5859 53.707L29.9375 45.7969C29.0391 47.9453 27.9062 49.5469 26.5391 50.6016C25.2109 51.6562 23.9414 52.3984 22.7305 52.8281C21.2852 53.3359 19.7812 53.5703 18.2188 53.5312C16.1875 53.3359 14.1562 52.8672 12.125 52.125C10.0938 51.3828 8.29688 50.25 6.73438 48.7266C5.17188 47.1641 3.96094 45.1523 3.10156 42.6914C2.28125 40.2305 2.02734 37.1836 2.33984 33.5508C2.69141 29.918 3.55078 26.7539 4.91797 24.0586C6.32422 21.3242 8.0625 19.0586 10.1328 17.2617C12.2031 15.4648 14.5273 14.1172 17.1055 13.2188C19.7227 12.2812 22.3984 11.7734 25.1328 11.6953Z" fill="#005153"/>
<path d="M25.1328 11.6953L25.1172 10.6954L25.1043 10.6957L25.1328 11.6953ZM31.2852 13.043L30.7799 13.906L30.789 13.9112L31.2852 13.043ZM37.6133 20.3086L36.6886 20.6894L36.6927 20.6991L37.6133 20.3086ZM38.9023 23.3555L39.8308 22.9841L39.8275 22.9757L39.824 22.9674L38.9023 23.3555ZM39.3711 24.1172L40.1848 23.5359L40.1781 23.5265L40.1711 23.5172L39.3711 24.1172ZM40.1914 25.1133L39.4481 25.7822L39.4833 25.8214L39.5224 25.8566L40.1914 25.1133ZM41.6562 26.3438L41.6885 27.3432L44.3972 27.2559L42.2809 25.5629L41.6562 26.3438ZM38.4336 26.4609V27.4609H38.4544L38.4752 27.4601L38.4336 26.4609ZM36.0312 26.5195L36.0838 27.5182L36.09 27.5178L36.0312 26.5195ZM31.8711 26.8125L31.7806 25.8166L31.7716 25.8175L31.8711 26.8125ZM24.8398 27.3984L24.0716 26.7583L22.5167 28.6242L24.9347 28.3939L24.8398 27.3984ZM27.125 24.293L26.2769 23.7629L26.2708 23.773L27.125 24.293ZM28.4141 21.832L27.4924 21.444L27.4871 21.4567L27.4821 21.4696L28.4141 21.832ZM28.9414 19.8984L27.9515 19.757L27.9465 19.792L27.9439 19.8272L28.9414 19.8984ZM28.8828 18.4922L27.9152 18.7446L27.9198 18.7622L27.925 18.7795L28.8828 18.4922ZM27.0664 16.5586L27.4378 15.6301L27.3869 15.6098L27.3341 15.5951L27.0664 16.5586ZM19.6836 18.4336L20.377 19.1542L20.3772 19.1539L19.6836 18.4336ZM15.2305 28.2773L14.2492 28.0844L14.248 28.091L15.2305 28.2773ZM14 35.3672L13.0123 35.2104L13.0104 35.2235L14 35.3672ZM13.5898 42.0469L12.5906 42.0853L12.5906 42.0861L13.5898 42.0469ZM18.3945 48.668L18.4399 49.6669L18.441 49.6669L18.3945 48.668ZM22.6719 47.8477L23.0433 48.7761L23.0565 48.7709L23.0695 48.7652L22.6719 47.8477ZM25.4844 46.0898L26.171 46.8169L26.1814 46.807L26.1915 46.797L25.4844 46.0898ZM26.9492 43.8633L26.0147 43.5073L26.0099 43.52L26.0054 43.5329L26.9492 43.8633ZM27.3008 41.5781L28.2947 41.4677L28.2854 41.3842L28.2623 41.3034L27.3008 41.5781ZM26.0703 39.8203L26.7557 39.0921L26.7526 39.0893L26.0703 39.8203ZM23.4336 38.0039L22.9191 38.8614L22.9298 38.8678L22.9406 38.8739L23.4336 38.0039ZM18.3945 35.8359L18.338 34.8375L18.0732 36.7829L18.3945 35.8359ZM23.4922 35.6016L23.5216 36.6011L23.5354 36.6007L23.5492 36.5999L23.4922 35.6016ZM26.7148 35.3672L26.6318 34.3706L26.6236 34.3713L26.6153 34.3722L26.7148 35.3672ZM28.8828 35.1914L28.9595 36.1885L28.9659 36.188L28.8828 35.1914ZM30.9336 35.0742L30.977 36.0733L30.9835 36.073L30.9336 35.0742ZM38.6094 34.957L39.3165 35.6641L41.0752 33.9054L38.5885 33.9572L38.6094 34.957ZM36.9688 36.8906L36.1367 36.3359L36.1285 36.3482L36.1208 36.3606L36.9688 36.8906ZM36.4414 37.7109L35.6094 37.1562L35.5516 37.2429L35.5129 37.3395L36.4414 37.7109ZM36.2656 40.1133H37.2656V40.0972L37.2651 40.081L36.2656 40.1133ZM36.5 44.625L35.5031 44.7032L35.5032 44.7047L36.5 44.625ZM37.3789 52.6523L37.513 53.6433L38.4954 53.5104L38.371 52.5269L37.3789 52.6523ZM29.5859 53.707L28.5869 53.6626L28.5338 54.8585L29.7201 54.698L29.5859 53.707ZM29.9375 45.7969L30.9365 45.8413L29.0149 45.4111L29.9375 45.7969ZM26.5391 50.6016L25.9282 49.8097L25.9172 49.8185L26.5391 50.6016ZM22.7305 52.8281L23.062 53.7716L23.0649 53.7706L22.7305 52.8281ZM18.2188 53.5312L18.123 54.5267L18.1583 54.5301L18.1938 54.5309L18.2188 53.5312ZM6.73438 48.7266L6.02721 49.4337L6.03627 49.4426L6.73438 48.7266ZM3.10156 42.6914L2.15288 43.0076L2.15513 43.0144L2.15747 43.0211L3.10156 42.6914ZM2.33984 33.5508L1.34444 33.4545L1.34352 33.4651L2.33984 33.5508ZM4.91797 24.0586L4.02867 23.6012L4.02614 23.6062L4.91797 24.0586ZM17.1055 13.2188L17.4346 14.1631L17.4427 14.1602L17.1055 13.2188ZM25.1484 12.6952C27.527 12.658 29.382 13.0876 30.78 13.906L31.7903 12.18C29.9852 11.1233 27.7386 10.6545 25.1172 10.6954L25.1484 12.6952ZM30.789 13.9112C32.3348 14.7945 33.5591 15.8277 34.484 17.0017L36.055 15.7639C34.9488 14.3598 33.5168 13.1664 31.7813 12.1747L30.789 13.9112ZM34.484 17.0017C35.4505 18.2283 36.1815 19.4578 36.6886 20.6893L38.538 19.9278C37.9513 18.5031 37.1198 17.1154 36.055 15.7639L34.484 17.0017ZM36.6927 20.6991C37.2394 21.9879 37.6687 23.0026 37.9807 23.7435L39.824 22.9674C39.511 22.224 39.0809 21.2074 38.5339 19.918L36.6927 20.6991ZM37.9739 23.7269C38.1014 24.0458 38.3208 24.3835 38.5711 24.7172L40.1711 23.5172C39.9526 23.2259 39.8595 23.0558 39.8308 22.9841L37.9739 23.7269ZM38.5574 24.6984C38.783 25.0144 39.0837 25.3774 39.4481 25.7822L40.9347 24.4443C40.596 24.0679 40.3498 23.7669 40.1848 23.5359L38.5574 24.6984ZM39.5224 25.8566C39.9321 26.2253 40.4363 26.6484 41.0316 27.1246L42.2809 25.5629C41.7043 25.1016 41.232 24.7044 40.8604 24.37L39.5224 25.8566ZM41.624 25.3443C40.4108 25.3834 39.3333 25.4226 38.392 25.4618L38.4752 27.4601C39.4089 27.4212 40.4798 27.3822 41.6885 27.3432L41.624 25.3443ZM38.4336 25.4609C37.4837 25.4609 36.6622 25.4807 35.9725 25.5213L36.09 27.5178C36.7284 27.4803 37.5085 27.4609 38.4336 27.4609V25.4609ZM35.9787 25.5209C35.233 25.5602 34.5642 25.5995 33.9725 25.6389L34.1056 27.6345C34.6858 27.5958 35.3451 27.557 36.0838 27.5181L35.9787 25.5209ZM33.9725 25.6389C33.3758 25.6787 32.6446 25.7381 31.7806 25.8166L31.9616 27.8084C32.8163 27.7307 33.5304 27.6728 34.1056 27.6345L33.9725 25.6389ZM31.7716 25.8175C31.0039 25.8942 30.0578 25.9715 28.9312 26.0492L29.0688 28.0445C30.2078 27.966 31.1757 27.887 31.9706 27.8075L31.7716 25.8175ZM28.9312 26.0492C27.7868 26.1282 26.3908 26.2462 24.745 26.4029L24.9347 28.3939C26.5701 28.2382 27.9476 28.1218 29.0688 28.0445L28.9312 26.0492ZM25.6081 28.0386C26.6035 26.8441 27.3981 25.7676 27.9792 24.8129L26.2708 23.773C25.7582 24.6152 25.0293 25.609 24.0716 26.7583L25.6081 28.0386ZM27.973 24.823C28.5783 23.8545 29.0421 22.976 29.3461 22.1945L27.4821 21.4696C27.2391 22.0943 26.8436 22.8565 26.277 23.763L27.973 24.823ZM29.3357 22.2201C29.6726 21.4199 29.8893 20.6638 29.9389 19.9697L27.9439 19.8272C27.9154 20.2268 27.7805 20.7598 27.4924 21.444L29.3357 22.2201ZM29.9314 20.0399C30.0231 19.3976 30.0115 18.7744 29.8406 18.2048L27.925 18.7795C27.9885 18.9912 28.016 19.3056 27.9515 19.757L29.9314 20.0399ZM29.8504 18.2398C29.5244 16.9901 28.6642 16.1207 27.4378 15.6301L26.695 17.4871C27.4217 17.7777 27.7724 18.1974 27.9152 18.7446L29.8504 18.2398ZM27.3341 15.5951C24.1793 14.7188 21.3532 15.4376 18.99 17.7133L20.3772 19.1539C22.2328 17.3671 24.3285 16.8359 26.7988 17.5221L27.3341 15.5951ZM18.9902 17.713C16.706 19.9111 15.1648 23.4271 14.2492 28.0845L16.2117 28.4702C17.093 23.9869 18.5206 20.9405 20.377 19.1542L18.9902 17.713ZM14.248 28.091C13.8163 30.3672 13.4044 32.7404 13.0124 35.2104L14.9876 35.524C15.3768 33.0721 15.7853 30.7187 16.213 28.4637L14.248 28.091ZM13.0104 35.2235C12.6518 37.6939 12.5097 39.9824 12.5906 42.0853L14.5891 42.0084C14.5137 40.0489 14.6451 37.8842 14.9896 35.5108L13.0104 35.2235ZM12.5906 42.0861C12.6727 44.1783 13.085 45.9691 13.8901 47.4004L15.6333 46.4199C15.0321 45.3512 14.6633 43.8998 14.5891 42.0077L12.5906 42.0861ZM13.8901 47.4004C14.3348 48.1909 14.96 48.7994 15.7617 49.1873C16.5528 49.5701 17.4597 49.7115 18.4399 49.6669L18.3491 47.669C17.6106 47.7026 17.0527 47.5901 16.6328 47.387C16.2235 47.1889 15.8918 46.8794 15.6333 46.4199L13.8901 47.4004ZM18.441 49.6669C20.1974 49.5852 21.7398 49.2975 23.0433 48.7761L22.3005 46.9192C21.2602 47.3353 19.951 47.5945 18.3481 47.669L18.441 49.6669ZM23.0695 48.7652C24.3158 48.2251 25.3611 47.5818 26.171 46.8169L24.7978 45.3628C24.2014 45.9261 23.3717 46.4546 22.2743 46.9301L23.0695 48.7652ZM26.1915 46.797C26.9797 46.0087 27.561 45.1424 27.8931 44.1936L26.0054 43.5329C25.7905 44.1467 25.3953 44.7647 24.7773 45.3827L26.1915 46.797ZM27.8837 44.2193C28.2394 43.2855 28.3941 42.3623 28.2947 41.4677L26.3069 41.6886C26.3637 42.2002 26.284 42.8004 26.0147 43.5073L27.8837 44.2193ZM28.2623 41.3034C28.0352 40.5084 27.4794 39.7733 26.7557 39.0921L25.3849 40.5485C25.9893 41.1174 26.2539 41.5541 26.3393 41.8528L28.2623 41.3034ZM26.7526 39.0893C26.0836 38.4648 25.1273 37.8143 23.9266 37.1339L22.9406 38.8739C24.0836 39.5216 24.8852 40.0821 25.388 40.5514L26.7526 39.0893ZM23.9481 37.1464C22.6877 36.3902 20.9314 35.6407 18.7158 34.889L18.0732 36.7829C20.2327 37.5156 21.8358 38.2114 22.9191 38.8614L23.9481 37.1464ZM18.451 36.8343C20.5167 36.7174 22.206 36.6398 23.5216 36.6011L23.4628 34.602C22.1221 34.6414 20.413 34.7201 18.338 34.8375L18.451 36.8343ZM23.5492 36.5999C24.9219 36.5215 26.0123 36.4424 26.8143 36.3622L26.6153 34.3722C25.8548 34.4482 24.7969 34.5254 23.4351 34.6032L23.5492 36.5999ZM26.7979 36.3637C27.7347 36.2857 28.4549 36.2273 28.9595 36.1885L28.8061 34.1944C28.2951 34.2337 27.57 34.2925 26.6318 34.3706L26.7979 36.3637ZM28.9659 36.188C29.4145 36.1506 30.0822 36.1122 30.977 36.0733L30.8902 34.0752C29.9881 34.1144 29.2887 34.1541 28.7998 34.1949L28.9659 36.188ZM30.9835 36.073C31.7418 36.0351 32.7197 36.0156 33.9219 36.0156V34.0156C32.7022 34.0156 31.6879 34.0353 30.8837 34.0755L30.9835 36.073ZM33.9219 36.0156C35.1813 36.0156 36.7513 35.996 38.6302 35.9568L38.5885 33.9572C36.7174 33.9962 35.1624 34.0156 33.9219 34.0156V36.0156ZM37.9023 34.2499C37.17 34.9822 36.5753 35.678 36.1367 36.3359L37.8008 37.4453C38.1434 36.9314 38.6425 36.3381 39.3165 35.6641L37.9023 34.2499ZM36.1208 36.3606C35.9292 36.6672 35.7588 36.9321 35.6094 37.1562L37.2735 38.2656C37.4365 38.0211 37.6177 37.7391 37.8167 37.4206L36.1208 36.3606ZM35.5129 37.3395C35.3762 37.6813 35.3142 38.1039 35.2829 38.5315C35.2501 38.9797 35.246 39.5207 35.2661 40.1455L37.2651 40.081C37.2462 39.4949 37.2518 39.0301 37.2776 38.6775C37.3049 38.3043 37.3503 38.1312 37.3699 38.0823L35.5129 37.3395ZM35.2656 40.1133C35.2656 41.1693 35.3463 42.7047 35.5031 44.7032L37.4969 44.5468C37.3412 42.5609 37.2656 41.0886 37.2656 40.1133H35.2656ZM35.5032 44.7047C35.6612 46.6803 35.9564 49.3736 36.3868 52.7778L38.371 52.5269C37.9421 49.1343 37.6513 46.4759 37.4968 44.5453L35.5032 44.7047ZM37.2448 51.6614L29.4518 52.7161L29.7201 54.698L37.513 53.6433L37.2448 51.6614ZM30.585 53.7514L30.9365 45.8413L28.9385 45.7525L28.5869 53.6626L30.585 53.7514ZM29.0149 45.4111C28.161 47.4531 27.1184 48.8917 25.9283 49.8098L27.1499 51.3933C28.6941 50.202 29.9171 48.4375 30.8601 46.1827L29.0149 45.4111ZM25.9172 49.8185C24.6494 50.8252 23.4758 51.5026 22.3961 51.8857L23.0649 53.7706C24.407 53.2943 25.7724 52.4873 27.1609 51.3847L25.9172 49.8185ZM22.399 51.8847C21.0704 52.3514 19.6875 52.5677 18.2437 52.5316L18.1938 54.5309C19.875 54.573 21.4999 54.3204 23.062 53.7716L22.399 51.8847ZM18.3145 52.5358C16.3727 52.3491 14.4244 51.9005 12.4682 51.1857L11.7818 53.0643C13.8881 53.8339 16.0023 54.3227 18.123 54.5267L18.3145 52.5358ZM12.4682 51.1857C10.5709 50.4925 8.89473 49.4363 7.43248 48.0106L6.03627 49.4426C7.69902 51.0637 9.61657 52.2731 11.7818 53.0643L12.4682 51.1857ZM7.44148 48.0195C6.00283 46.5808 4.86427 44.706 4.04565 42.3617L2.15747 43.0211C3.0576 45.5987 4.34092 47.7473 6.02727 49.4337L7.44148 48.0195ZM4.05025 42.3752C3.28677 40.0848 3.03094 37.1847 3.33616 33.6365L1.34352 33.4651C1.02375 37.1825 1.27573 40.3762 2.15288 43.0076L4.05025 42.3752ZM3.33519 33.6471C3.67717 30.1133 4.50939 27.0746 5.8098 24.511L4.02614 23.6062C2.59217 26.4332 1.70564 29.7226 1.34449 33.4545L3.33519 33.6471ZM5.80726 24.5159C7.16231 21.8811 8.82518 19.7208 10.7883 18.0169L9.47734 16.5065C7.29982 18.3964 5.48612 20.7673 4.02868 23.6012L5.80726 24.5159ZM10.7883 18.0169C12.7632 16.3029 14.9767 15.0196 17.4345 14.1631L16.7764 12.2744C14.078 13.2148 11.6431 14.6268 9.47734 16.5065L10.7883 18.0169ZM17.4427 14.1602C19.9623 13.2576 22.534 12.77 25.1614 12.6949L25.1043 10.6957C22.2628 10.7769 19.483 11.3049 16.7682 12.2773L17.4427 14.1602Z" fill="#005153" mask="url(#path-3-outside-2_60_283)"/>
</svg>
